<svg width="25" height="25" viewBox="0 0 25 25" fill="none" xmlns="http://www.w3.org/2000/svg">
<path d="M2.08325 6.25L9.28432 10.3302C11.9391 11.8344 13.0608 11.8344 15.7155 10.3302L22.9166 6.25" stroke="black" stroke-width="1.5" stroke-linejoin="round"/>
<path d="M2.09968 14.0371C2.16777 17.2304 2.20183 18.827 3.38009 20.0098C4.55834 21.1925 6.19818 21.2336 9.47787 21.316C11.4992 21.3669 13.5006 21.3669 15.522 21.316C18.8017 21.2336 20.4415 21.1925 21.6198 20.0098C22.798 18.827 22.8321 17.2304 22.9001 14.0371C22.9221 13.0103 22.9221 11.9897 22.9001 10.9629C22.8321 7.76965 22.798 6.17301 21.6198 4.99027C20.4415 3.80753 18.8017 3.76633 15.522 3.68393C13.5006 3.63314 11.4992 3.63314 9.47786 3.68392C6.19818 3.76631 4.55834 3.80751 3.38007 4.99026C2.20181 6.173 2.16777 7.76964 2.09967 10.9629C2.07777 11.9897 2.07778 13.0103 2.09968 14.0371Z" stroke="black" stroke-width="1.5" stroke-linejoin="round"/>
</svg>
